<svg xmlns="http://www.w3.org/2000/svg" width="283.924" height="206.023" viewBox="0 0 283.924 206.023">
  <g id="Grupo_536" data-name="Grupo 536" transform="translate(-3759.703 -900.683)">
    <g id="Grupo_524" data-name="Grupo 524" transform="translate(3759.703 900.683)">
      <rect id="Rectángulo_2480" data-name="Rectángulo 2480" width="172.456" height="122.793" transform="translate(0 83.172)" fill="#102048"/>
      <g id="Grupo_522" data-name="Grupo 522" transform="translate(15.169 0)">
        <path id="Trazado_596" data-name="Trazado 596" d="M4772.087,940.442h-31.9V911.321a10.638,10.638,0,0,1,21.275-.1v.1l-.008,18.484c0,.089,0,.187.008.276v.56l.033-.016A10.625,10.625,0,0,0,4772.087,940.442Z" transform="translate(-4598.007 -900.683)" fill="#86a7ff"/>
        <path id="Trazado_597" data-name="Trazado 597" d="M4894.186,1042.107v6.435a10.629,10.629,0,0,1-21.227.811Z" transform="translate(-4709.476 -1019.412)" fill="#d3dfff"/>
        <path id="Trazado_598" data-name="Trazado 598" d="M4007.039,900.683c-.227,0-.446.008-.666.024-.146.008-.284.016-.422.032-.154.016-.3.032-.454.057-.089.008-.179.025-.268.041-.114.016-.228.041-.333.065-.162.033-.316.065-.479.106-.227.057-.454.122-.681.2-.114.032-.228.073-.333.114s-.22.081-.325.122a4.442,4.442,0,0,0-.446.195c-.129.057-.259.114-.389.187-.033.016-.073.033-.114.057-.113.057-.227.122-.341.187a9.717,9.717,0,0,0-1.273.852c-.114.089-.235.187-.341.276-.13.105-.243.211-.365.325s-.235.227-.349.341a10.885,10.885,0,0,0-.893,1.03c-.122.162-.235.317-.349.479a12.015,12.015,0,0,0-.933,1.712c-.065.146-.122.3-.187.454a12.127,12.127,0,0,0-.43,1.428c-.033.171-.065.333-.1.5-.057.333-.105.673-.13,1.014V1059.7H3854.226V917.268a16.583,16.583,0,0,1,16.585-16.585Z" transform="translate(-3854.226 -900.683)" fill="#d3dfff"/>
        <g id="Grupo_521" data-name="Grupo 521" transform="translate(16.812 15.206)">
          <rect id="Rectángulo_2481" data-name="Rectángulo 2481" width="107.918" height="5.68" fill="#adc3ff"/>
          <rect id="Rectángulo_2482" data-name="Rectángulo 2482" width="99.555" height="5.68" transform="translate(0 16.634)" fill="#adc3ff"/>
          <rect id="Rectángulo_2483" data-name="Rectángulo 2483" width="94.307" height="5.68" transform="translate(0 33.268)" fill="#adc3ff"/>
          <rect id="Rectángulo_2484" data-name="Rectángulo 2484" width="107.918" height="5.68" transform="translate(0 49.902)" fill="#adc3ff"/>
          <rect id="Rectángulo_2485" data-name="Rectángulo 2485" width="58.506" height="5.68" transform="translate(41.703 66.738)" fill="#adc3ff"/>
        </g>
        <path id="Trazado_600" data-name="Trazado 600" d="M3996.442,1418.788v70.7H3854.226v-76.856l44.424,36.959a11.239,11.239,0,0,0,8.828,2.377,16.87,16.87,0,0,1,2.8-.154l30.282.852a17.2,17.2,0,0,1,3.1.381,11.138,11.138,0,0,0,9.016-1.858Z" transform="translate(-3854.226 -1330.474)" fill="#86a7ff" opacity="0.3"/>
      </g>
      <g id="Grupo_523" data-name="Grupo 523" transform="translate(0 83.17)">
        <path id="Trazado_601" data-name="Trazado 601" d="M3824.564,1469.857l-1.185,1.314-53.521,59.346-10.134,11.23v-122.8Z" transform="translate(-3759.721 -1418.949)" fill="#1b396a"/>
        <path id="Trazado_602" data-name="Trazado 602" d="M4495.133,1418.963l-64.844,50.906,64.844,71.888Z" transform="translate(-4322.676 -1418.961)" fill="#1b396a"/>
        <path id="Trazado_603" data-name="Trazado 603" d="M3823.379,1733.248l-53.521,59.346-10.134,2.231v-21.819c26.752-19.174,56.766-41.406,63.623-41.885Z" transform="translate(-3759.721 -1681.025)" fill="#162d53"/>
        <path id="Trazado_604" data-name="Trazado 604" d="M4437.692,1733.248l53.521,59.346,10.134,2.231v-21.819c-26.752-19.174-56.767-41.406-63.623-41.885Z" transform="translate(-4328.891 -1681.025)" fill="#162d53"/>
        <path id="Trazado_605" data-name="Trazado 605" d="M3932.16,1794.613H3759.7l.031-16.154,59.425-53.91a16.949,16.949,0,0,1,11.388-4.4h30.295a16.947,16.947,0,0,1,11.251,4.274l60.234,53.474Z" transform="translate(-3759.703 -1671.818)" fill="#1b396a"/>
      </g>
    </g>
    <g id="Grupo_535" data-name="Grupo 535" transform="translate(3950.179 920.46)">
      <g id="Grupo_526" data-name="Grupo 526" transform="translate(0 25.975)">
        <g id="Grupo_525" data-name="Grupo 525" transform="translate(11.292)">
          <path id="Trazado_606" data-name="Trazado 606" d="M5017.012,1334.213l9.94,4.463,7.407-24.383-9.7-2.55A145.8,145.8,0,0,0,5017.012,1334.213Z" transform="translate(-5017.012 -1291.53)" fill="#e28b6d"/>
          <path id="Trazado_607" data-name="Trazado 607" d="M5064.653,1206l9.7,2.55,8.28-22.746S5072.627,1184.45,5064.653,1206Z" transform="translate(-5057.008 -1185.785)" fill="#102048"/>
        </g>
        <path id="Trazado_608" data-name="Trazado 608" d="M4953.813,1399.1l-7.168,19.745,26.777,10.278,5.409-20.556Z" transform="translate(-4946.646 -1364.864)" fill="#1b396a"/>
        <path id="Trazado_609" data-name="Trazado 609" d="M5000.438,1514.971a1.99,1.99,0,0,1-2.827.313c-2-.355-3.357-.609-4.607-1.99a1.942,1.942,0,0,1-1.113-2.683c.984-1.972,2.508-4.752,3.231-4.642.91.138.251,2.945.251,2.945s1.517-3.562,2.955-3.092c.641.211-.9,3.6-1.058,3.96.243-.324,2.166-2.913,2.9-2.369s-1.058,3.611-1.248,3.935c.208-.26,1.9-2.3,2.721-1.623C5002,1510.024,5001.442,1512.093,5000.438,1514.971Z" transform="translate(-4984.46 -1454.428)" fill="#e28b6d"/>
      </g>
      <g id="Grupo_530" data-name="Grupo 530" transform="translate(21.232 62.776)">
        <path id="Trazado_610" data-name="Trazado 610" d="M5359.573,1916.424s12.983-1.42,18.459-13.388l-14.4.812Z" transform="translate(-5314.54 -1824.734)" fill="#102048"/>
        <g id="Grupo_527" data-name="Grupo 527" transform="translate(46.927 78.436)">
          <path id="Trazado_611" data-name="Trazado 611" d="M5383.813,1903.878l-12.442,7.708,5.6,8.221,12-8.174Z" transform="translate(-5371.371 -1903.878)" fill="#e28b6d"/>
          <path id="Trazado_612" data-name="Trazado 612" d="M5425.938,1963.79l-7.694-11.583-12,8.174,2.045,3-1.217,16.025Z" transform="translate(-5400.648 -1944.451)" fill="#102048"/>
          <rect id="Rectángulo_2486" data-name="Rectángulo 2486" width="6.099" height="0.811" transform="translate(7.62 18.529) rotate(-2.912)" fill="#fff"/>
        </g>
        <g id="Grupo_528" data-name="Grupo 528" transform="translate(0 99.533)">
          <path id="Trazado_613" data-name="Trazado 613" d="M5156.655,2036.152,5143,2035.34V2046.4l14.694-.933Z" transform="translate(-5132.719 -2035.34)" fill="#e28b6d"/>
          <path id="Trazado_614" data-name="Trazado 614" d="M5089.229,2099.374v2.6l-10.278,10.278h26.506l-1.534-13.811Z" transform="translate(-5078.951 -2088.315)" fill="#102048"/>
          <rect id="Rectángulo_2487" data-name="Rectángulo 2487" width="0.812" height="6.73" transform="matrix(0.502, -0.865, 0.865, 0.502, 9.764, 14.213)" fill="#fff"/>
        </g>
        <path id="Trazado_615" data-name="Trazado 615" d="M5106.224,1445.566c-.211,5.031-.251,10.337-.163,15.685.082,4.641.252,9.315.5,13.883,1.168,22.7,3.871,42.794,3.871,42.794l-21.1,2.71c-10-69.781-3.513-99.268-3.513-99.268l9.194-1.874,8.162-1.664,9.153-1.866c-.113.17-.227.349-.332.535a31.033,31.033,0,0,0-3.352,8.917A110.982,110.982,0,0,0,5106.224,1445.566Z" transform="translate(-5082.977 -1415.828)" fill="#8d9cb4"/>
        <path id="Trazado_616" data-name="Trazado 616" d="M5193.788,1608.125c-8.845-18.8-5.526-33.747-5.526-33.747l5.193,4.178c-.211,5.031-.251,10.338-.162,15.685C5193.374,1598.883,5193.544,1603.556,5193.788,1608.125Z" transform="translate(-5170.208 -1548.819)" fill="#8d9cb4"/>
        <path id="Trazado_617" data-name="Trazado 617" d="M5205.055,1493.407c-10.142,3.854-18.459,13.388-18.459,13.388a330.387,330.387,0,0,1-21.948-46.267,203.97,203.97,0,0,1-10.362-37.276c-.251-1.5-.486-2.994-.689-4.479-.024-.138-.05-.284-.064-.422l8.227-1.241,8.821-1.331,4.454-.674c.479,2.84,1.12,5.81,1.891,8.869C5184.6,1454.516,5205.055,1493.407,5205.055,1493.407Z" transform="translate(-5141.563 -1415.106)" fill="#8d9cb4"/>
        <g id="Grupo_529" data-name="Grupo 529" transform="translate(0.941 13.874)" opacity="0.8">
          <path id="Trazado_618" data-name="Trazado 618" d="M5306.837,1527.085c-.128-.321-.258-.641-.386-.963a25.82,25.82,0,0,1-4.623-3.637,18.715,18.715,0,0,1-5.047-15.167,17.9,17.9,0,0,1,1.376-4.87c-.086-.3-.17-.591-.255-.886a18.636,18.636,0,0,0-1.725,5.677,19.336,19.336,0,0,0,5.216,15.671A27.939,27.939,0,0,0,5306.837,1527.085Z" transform="translate(-5262.133 -1501.562)" fill="#fff"/>
          <path id="Trazado_619" data-name="Trazado 619" d="M5313,1808.779c-.084-.18-.17-.36-.255-.542a24.5,24.5,0,0,1-7.7,1.229,27.153,27.153,0,0,0-8.262,1.318,12.844,12.844,0,0,0-6.053,5.018c.1.215.209.429.314.644a12.333,12.333,0,0,1,5.96-5.1,26.721,26.721,0,0,1,8.076-1.277A24.924,24.924,0,0,0,5313,1808.779Z" transform="translate(-5257.68 -1759.023)" fill="#fff"/>
          <path id="Trazado_620" data-name="Trazado 620" d="M5094.433,1782.052c6.749,3.427,12.215,9.17,17.048,14.557-.028-.332-.055-.667-.082-1-4.737-5.252-10.1-10.75-16.69-14.1a28.5,28.5,0,0,0-6.436-2.355c.013.212.025.424.039.637A27.928,27.928,0,0,1,5094.433,1782.052Z" transform="translate(-5087.719 -1734.607)" fill="#fff"/>
          <path id="Trazado_621" data-name="Trazado 621" d="M5127.923,1973.14a11.335,11.335,0,0,1-5.06-.056,33.942,33.942,0,0,1-4.647-1.58,32.756,32.756,0,0,0-4.98-1.663,16.38,16.38,0,0,0-7.3.118c.023.2.049.406.073.609a15.788,15.788,0,0,1,7.1-.132,32.289,32.289,0,0,1,4.888,1.635,34.314,34.314,0,0,0,4.731,1.607,12.009,12.009,0,0,0,5.265.071C5127.968,1973.55,5127.945,1973.343,5127.923,1973.14Z" transform="translate(-5102.546 -1894.394)" fill="#fff"/>
          <path id="Trazado_622" data-name="Trazado 622" d="M5089.7,1581.326a14.113,14.113,0,0,1-4.876,11.193c.008.257.018.522.026.782a14.267,14.267,0,0,0-.007-22.482q-.015.379-.028.766A14.034,14.034,0,0,1,5089.7,1581.326Z" transform="translate(-5084.816 -1559.705)" fill="#fff"/>
        </g>
        <path id="Trazado_623" data-name="Trazado 623" d="M5129.17,1423.975a50.336,50.336,0,0,1-9.7.722,79.367,79.367,0,0,1-22.825-4.049l9.193-1.874c-.024-.138-.049-.284-.065-.422l8.228-1.241,9.152-1.866c-.113.17-.227.349-.333.535l4.455-.674C5127.758,1417.946,5128.4,1420.916,5129.17,1423.975Z" transform="translate(-5093.808 -1415.106)" fill="#1f3c88" opacity="0.4"/>
        <path id="Trazado_624" data-name="Trazado 624" d="M5152.266,1586.871a.405.405,0,0,1-.382-.269l-5.861-16.482-7.045-4.253a.406.406,0,0,1,.421-.694l7.291,4.4,5.958,16.754a.4.4,0,0,1-.245.518A.4.4,0,0,1,5152.266,1586.871Z" transform="translate(-5129.181 -1541.043)" fill="#6f809d"/>
      </g>
      <g id="Grupo_532" data-name="Grupo 532" transform="translate(21.232 16.816)">
        <path id="Trazado_625" data-name="Trazado 625" d="M5115.87,1222.992c-13.591,5.169-36.919,2.264-36.919,2.264.949-9.875,1.014-39.086,16.229-42.737l6.8.714c3.562,1.4,6.345,6.718,8.439,13.039a104.194,104.194,0,0,1,3.059,11.749C5115.148,1216.1,5115.87,1222.992,5115.87,1222.992Z" transform="translate(-5078.951 -1173.884)" fill="#1b396a"/>
        <path id="Trazado_626" data-name="Trazado 626" d="M5253.556,1278.062c-6.4-3.725-7.749-12.115-7.749-12.115l4.69.365A104.063,104.063,0,0,1,5253.556,1278.062Z" transform="translate(-5219.031 -1243.923)" fill="#102048"/>
        <g id="Grupo_531" data-name="Grupo 531" transform="translate(22.111)">
          <path id="Trazado_627" data-name="Trazado 627" d="M5217.646,1186.936l-.913,13.084,13.965,7.458,2.827-13.556C5221.248,1186.67,5217.646,1186.936,5217.646,1186.936Z" transform="translate(-5216.734 -1177.591)" fill="#1b396a"/>
          <path id="Trazado_628" data-name="Trazado 628" d="M5317.3,1156.038a9.425,9.425,0,0,1-1.128,1.4,9.286,9.286,0,0,1-2.669,1.931,9.477,9.477,0,0,1-8.609-.17l-1.144-.608,2.832-13.559c.755.454,1.542.925,2.377,1.436,0,0,11.052-15.62,11.863-15.311.73.268-.511,2.686-.763,3.165.479-.706,4.065-5.964,5.022-5.6.763.284-.2,2.621-.324,2.905.218-.316,2.142-3.148,3.3-2.467.536.316-1.533,3.384-1.736,3.692.252-.243,2.548-2.467,3.116-1.8.584.673-1.647,3.327-1.9,3.627.227-.2,2.19-1.915,2.815-1.087C5331.178,1134.658,5321.132,1150.2,5317.3,1156.038Z" transform="translate(-5289.788 -1128.708)" fill="#e28b6d"/>
        </g>
        <path id="Trazado_629" data-name="Trazado 629" d="M5341.983,1297.108a9.294,9.294,0,0,1-2.669,1.931,9.458,9.458,0,0,1-4.714.933,3.71,3.71,0,0,1-.105-.9,4,4,0,0,1,7.489-1.964Z" transform="translate(-5293.485 -1268.374)" fill="#eb5d60" opacity="0.4"/>
        <path id="Trazado_630" data-name="Trazado 630" d="M5093.589,1412.465c-6,0-11.371-.384-14.007-.609-.18-.015-.288-.025-.318-.026a.306.306,0,0,1-.293-.311.3.3,0,0,1,.3-.3c.021,0,.145.009.361.028,6.008.515,26.319,1.858,35.517-2.434a.3.3,0,1,1,.256.552C5110.144,1411.823,5101.346,1412.465,5093.589,1412.465Z" transform="translate(-5078.968 -1363.84)" fill="#86a7ff"/>
        <path id="Trazado_631" data-name="Trazado 631" d="M5165.207,1226.236a5.65,5.65,0,0,1-4.675-2.163.3.3,0,0,1,.511-.33c.105.161,2.652,3.9,9.068.438a.307.307,0,0,1,.412.123.3.3,0,0,1-.125.412A10.992,10.992,0,0,1,5165.207,1226.236Z" transform="translate(-5147.4 -1208.376)" fill="#86a7ff"/>
      </g>
      <g id="Grupo_534" data-name="Grupo 534" transform="translate(32.172 0)">
        <path id="Trazado_632" data-name="Trazado 632" d="M5235.408,1024.648a5.019,5.019,0,0,1,5.515.2c.788.646,1.294,1.574,2.025,2.285,1.567,1.523,4.006,1.905,5.507,3.493a6.211,6.211,0,0,1,1.458,4.7,16.247,16.247,0,0,1-1.336,4.862,15.911,15.911,0,0,1-3.725,6.121,5.488,5.488,0,0,1-2.384,1.336,3.18,3.18,0,0,1-2.629-.487,3.5,3.5,0,0,1-1.218-2.554,10.368,10.368,0,0,1,.346-2.885,1.538,1.538,0,0,0,2.333-1.493c-.116-.968-1.07-1.577-1.925-2.045l-4.252-2.33a8.158,8.158,0,0,1-2.3-1.634c-1.043-1.188-1.879-3.8-1.19-5.3A9.781,9.781,0,0,1,5235.408,1024.648Z" transform="translate(-5217.859 -1023.921)" fill="#4e4e52"/>
        <path id="Trazado_633" data-name="Trazado 633" d="M5151.635,1038.336s-.087-9.614,11.853-7.081a8.853,8.853,0,0,1,5.085,3.125c1.943,2.4,3.188,12.511-2.366,15.315C5159.241,1053.212,5151.635,1038.336,5151.635,1038.336Z" transform="translate(-5150.911 -1029.722)" fill="#4e4e52"/>
        <path id="Trazado_634" data-name="Trazado 634" d="M5178.028,1128.164l-.276,9.656a4.714,4.714,0,0,1-4.463,4.568,2.371,2.371,0,0,1-.243.008,4.715,4.715,0,0,1-4.689-5.12l.016-.154.634-7.335.8-.146Z" transform="translate(-5164.934 -1111.436)" fill="#e28b6d"/>
        <path id="Trazado_635" data-name="Trazado 635" d="M5174.114,1139.339a11.221,11.221,0,0,1-5.566,5.51l.633-7.335.8-.146Z" transform="translate(-5165.11 -1119.162)" fill="#102048"/>
        <path id="Trazado_636" data-name="Trazado 636" d="M5147.847,1052.663s-3.043,12.678,3.347,13.287,9.028-5.173,9.028-5.173l.811-7.2-3.955-5.68-6.289,1.927Z" transform="translate(-5147.123 -1044.049)" fill="#e28b6d"/>
        <path id="Trazado_637" data-name="Trazado 637" d="M5151.635,1048.418s5.878-3.3,8.012,1.116c1.488,3.077,3.753,4.767,5.985,3.753s.405-8.317.405-8.317l-8.317-2.13-4.97,2.84Z" transform="translate(-5150.911 -1039.804)" fill="#4e4e52"/>
        <ellipse id="Elipse_8" data-name="Elipse 8" cx="2.778" cy="2.296" rx="2.778" ry="2.296" transform="translate(9.644 15.022) rotate(-59.999)" fill="#e28b6d"/>
        <path id="Trazado_638" data-name="Trazado 638" d="M5223.259,1104.55h-.015a.2.2,0,0,1-.188-.217c.051-.72.507-2.081,1.859-2.081a.2.2,0,1,1,0,.406c-1.312,0-1.449,1.636-1.455,1.705A.2.2,0,0,1,5223.259,1104.55Z" transform="translate(-5210.87 -1089.681)" fill="#102048"/>
      </g>
    </g>
  </g>
</svg>
