<svg xmlns="http://www.w3.org/2000/svg" width="17.267" height="20.216" viewBox="0 0 17.267 20.216">
  <g id="Icons" transform="translate(0)">
    <g id="Black" transform="translate(0)">
      <path id="Apple" d="M215.445,563.282a4.451,4.451,0,0,0,.978-3.282,4.747,4.747,0,0,0-3.072,1.663,4.117,4.117,0,0,0-1.005,3.2,4,4,0,0,0,3.1-1.582Zm5.823,11.55a14.606,14.606,0,0,1-1.306,2.451c-.847,1.3-2.042,2.917-3.523,2.929-1.315.014-1.654-.862-3.439-.851s-2.157.868-3.475.855c-1.48-.013-2.612-1.473-3.46-2.772-2.37-3.63-2.619-7.891-1.158-10.158a5.244,5.244,0,0,1,4.22-2.551c1.568,0,2.554.865,3.853.865,1.26,0,2.026-.868,3.84-.868a5.117,5.117,0,0,1,3.862,2.05,4.455,4.455,0,0,0,.585,8.049Z" transform="translate(-204 -560)" fill="#fff" fill-rule="evenodd"/>
    </g>
  </g>
</svg>
