<svg xmlns="http://www.w3.org/2000/svg" width="200.486" height="202.512" viewBox="0 0 200.486 202.512">
  <g id="circuito" transform="matrix(0.914, -0.407, 0.407, 0.914, -17.028, 57.264)" opacity="0.05">
    <g id="Grupo_482" data-name="Grupo 482" transform="translate(0 41.864)">
      <g id="Grupo_481" data-name="Grupo 481">
        <path id="Trazado_550" data-name="Trazado 550" d="M36.234,150l-7.679-7.679a14,14,0,0,0,1.44-6.239,14.4,14.4,0,1,0-14.4,14.4,12.324,12.324,0,0,0,6-1.44l6.239,6.239v9.6l-16.8,17.277a4.738,4.738,0,0,0-1.44,3.359v13.438A14.293,14.293,0,0,0,0,212.392a14.4,14.4,0,1,0,28.8,0,14.85,14.85,0,0,0-9.6-13.678V187.436L36.234,170.4a4.738,4.738,0,0,0,1.44-3.359V153.362A4.737,4.737,0,0,0,36.234,150Zm-20.4-9.358a4.8,4.8,0,1,1,4.8-4.8A4.813,4.813,0,0,1,15.837,140.644ZM14.4,217.192a4.8,4.8,0,1,1,4.8-4.8A4.813,4.813,0,0,1,14.4,217.192Z" transform="translate(0 -121.687)" fill="#fff"/>
      </g>
    </g>
    <g id="Grupo_484" data-name="Grupo 484" transform="translate(31.195 0.351)">
      <g id="Grupo_483" data-name="Grupo 483" transform="translate(0 0)">
        <path id="Trazado_551" data-name="Trazado 551" d="M119.253.351a14.44,14.44,0,0,0-14.4,14.4,14.294,14.294,0,0,0,9.6,13.438v79.667l-12.238,12.238a4.738,4.738,0,0,0-1.44,3.359v21.6a14.294,14.294,0,0,0-9.6,13.438,14.4,14.4,0,0,0,28.8,0,14.294,14.294,0,0,0-9.6-13.438V125.61l12.238-12.238a4.738,4.738,0,0,0,1.44-3.359V28.426a14.294,14.294,0,0,0,9.6-13.438A14.492,14.492,0,0,0,119.253.351ZM105.576,163.524a4.8,4.8,0,1,1,4.8-4.8A4.813,4.813,0,0,1,105.576,163.524ZM119.253,19.548a4.8,4.8,0,1,1,4.8-4.8A4.813,4.813,0,0,1,119.253,19.548Z" transform="translate(-91.178 -0.351)" fill="#fff"/>
      </g>
    </g>
    <g id="Grupo_486" data-name="Grupo 486" transform="translate(70.309 65.62)">
      <g id="Grupo_485" data-name="Grupo 485">
        <path id="Trazado_552" data-name="Trazado 552" d="M224.7,270.311V219.2a14.607,14.607,0,0,0,9.6-13.678,14.4,14.4,0,1,0-28.8,0,14.294,14.294,0,0,0,9.6,13.438v51.591a14.294,14.294,0,0,0-9.6,13.438,14.4,14.4,0,0,0,28.8,0A14.852,14.852,0,0,0,224.7,270.311Zm-4.8-69.589a4.8,4.8,0,1,1-4.8,4.8A4.813,4.813,0,0,1,219.9,200.722Zm0,88.305a4.8,4.8,0,1,1,4.8-4.8A4.813,4.813,0,0,1,219.9,289.028Z" transform="translate(-205.502 -191.124)" fill="#fff"/>
      </g>
    </g>
    <g id="Grupo_488" data-name="Grupo 488" transform="translate(135.098 41.864)">
      <g id="Grupo_487" data-name="Grupo 487">
        <path id="Trazado_553" data-name="Trazado 553" d="M422.947,198.714V185.277a4.738,4.738,0,0,0-1.44-3.359L404.471,164.88v-9.6l6.239-6.239a13.011,13.011,0,0,0,6,1.44,14.4,14.4,0,1,0-14.4-14.4,14,14,0,0,0,1.44,6.239L396.072,150a5.733,5.733,0,0,0-1.2,3.359V167.04a4.738,4.738,0,0,0,1.44,3.359l17.037,17.037v11.278a14.294,14.294,0,0,0-9.6,13.438,14.4,14.4,0,0,0,28.8,0A14.782,14.782,0,0,0,422.947,198.714Zm-6.239-67.669a4.8,4.8,0,1,1-4.8,4.8A4.813,4.813,0,0,1,416.708,131.046Zm1.44,86.146a4.8,4.8,0,1,1,4.8-4.8A4.813,4.813,0,0,1,418.148,217.192Z" transform="translate(-394.872 -121.687)" fill="#fff"/>
      </g>
    </g>
    <g id="Grupo_490" data-name="Grupo 490" transform="translate(99.104 0.351)">
      <g id="Grupo_489" data-name="Grupo 489" transform="translate(0 0)">
        <path id="Trazado_554" data-name="Trazado 554" d="M322.54,145.287v-21.6a4.738,4.738,0,0,0-1.44-3.359l-12.238-12.238V28.186a14.294,14.294,0,0,0,9.6-13.438,14.4,14.4,0,0,0-28.8,0,14.294,14.294,0,0,0,9.6,13.438v81.587a4.738,4.738,0,0,0,1.44,3.359l12.238,12.238v19.437a14.294,14.294,0,0,0-9.6,13.438,14.4,14.4,0,0,0,28.8,0A14.157,14.157,0,0,0,322.54,145.287ZM304.064,19.548a4.8,4.8,0,1,1,4.8-4.8A4.813,4.813,0,0,1,304.064,19.548Zm13.678,143.976a4.8,4.8,0,1,1,4.8-4.8A4.813,4.813,0,0,1,317.741,163.524Z" transform="translate(-289.666 -0.351)" fill="#fff"/>
      </g>
    </g>
  </g>
</svg>
