<svg xmlns="http://www.w3.org/2000/svg" width="204.388" height="163.901" viewBox="0 0 204.388 163.901">
  <g id="_039---Programming-On-Computer" data-name="039---Programming-On-Computer" transform="translate(-11.305 47.379) rotate(-19)" opacity="0.05">
    <path id="Path" d="M7.988,12.977H31.919a3.988,3.988,0,1,0,0-7.977H7.988a3.988,3.988,0,1,0,0,7.977Z" transform="translate(4.359 5.449)" fill="#fff"/>
    <path id="Path-2" data-name="Path" d="M33.988,12.977H89.827a3.988,3.988,0,0,0,0-7.977H33.988a3.988,3.988,0,0,0,0,7.977Z" transform="translate(82.058 5.449)" fill="#fff"/>
    <path id="Path-3" data-name="Path" d="M17.988,12.977H33.942a3.988,3.988,0,0,0,0-7.977H17.988a3.988,3.988,0,0,0,0,7.977Z" transform="translate(34.243 5.449)" fill="#fff"/>
    <path id="Path-4" data-name="Path" d="M25.988,12.977H41.942a3.988,3.988,0,0,0,0-7.977H25.988a3.988,3.988,0,1,0,0,7.977Z" transform="translate(58.151 5.449)" fill="#fff"/>
    <path id="Path-5" data-name="Path" d="M7.988,28.977H31.919a3.988,3.988,0,1,0,0-7.977H7.988a3.988,3.988,0,1,0,0,7.977Z" transform="translate(4.359 53.264)" fill="#fff"/>
    <path id="Path-6" data-name="Path" d="M89.827,21H33.988a3.988,3.988,0,0,0,0,7.977H89.827a3.988,3.988,0,0,0,0-7.977Z" transform="translate(82.058 53.264)" fill="#fff"/>
    <path id="Path-7" data-name="Path" d="M17.988,28.977H33.942a3.988,3.988,0,0,0,0-7.977H17.988a3.988,3.988,0,1,0,0,7.977Z" transform="translate(34.243 53.264)" fill="#fff"/>
    <path id="Path-8" data-name="Path" d="M41.942,21H25.988a3.988,3.988,0,1,0,0,7.977H41.942a3.988,3.988,0,0,0,0-7.977Z" transform="translate(58.151 53.264)" fill="#fff"/>
    <path id="Path-9" data-name="Path" d="M7.988,16.977H31.919a3.988,3.988,0,1,0,0-7.977H7.988a3.988,3.988,0,1,0,0,7.977Z" transform="translate(4.359 17.403)" fill="#fff"/>
    <path id="Path-10" data-name="Path" d="M53.919,9H29.988a3.988,3.988,0,0,0,0,7.977H53.919a3.988,3.988,0,0,0,0-7.977Z" transform="translate(70.105 17.403)" fill="#fff"/>
    <path id="Path-11" data-name="Path" d="M23.988,24.977H47.919a3.988,3.988,0,0,0,0-7.977H23.988a3.988,3.988,0,0,0,0,7.977Z" transform="translate(52.174 41.31)" fill="#fff"/>
    <path id="Path-12" data-name="Path" d="M17.988,16.977h7.977a3.988,3.988,0,0,0,0-7.977H17.988a3.988,3.988,0,0,0,0,7.977Z" transform="translate(34.243 17.403)" fill="#fff"/>
    <path id="Path-13" data-name="Path" d="M23.988,16.977h7.977a3.988,3.988,0,1,0,0-7.977H23.988a3.988,3.988,0,1,0,0,7.977Z" transform="translate(52.174 17.403)" fill="#fff"/>
    <path id="Path-14" data-name="Path" d="M7.988,32.977H31.919a3.988,3.988,0,1,0,0-7.977H7.988a3.988,3.988,0,1,0,0,7.977Z" transform="translate(4.359 65.218)" fill="#fff"/>
    <path id="Path-15" data-name="Path" d="M85.827,25H29.988a3.988,3.988,0,0,0,0,7.977H85.827a3.988,3.988,0,1,0,0-7.977Z" transform="translate(70.105 65.218)" fill="#fff"/>
    <path id="Path-16" data-name="Path" d="M17.988,32.977h7.977a3.988,3.988,0,0,0,0-7.977H17.988a3.988,3.988,0,1,0,0,7.977Z" transform="translate(34.243 65.218)" fill="#fff"/>
    <path id="Path-17" data-name="Path" d="M23.988,32.977h7.977a3.988,3.988,0,1,0,0-7.977H23.988a3.988,3.988,0,1,0,0,7.977Z" transform="translate(52.174 65.218)" fill="#fff"/>
    <path id="Path-18" data-name="Path" d="M7.988,20.977H31.919a3.988,3.988,0,1,0,0-7.977H7.988a3.988,3.988,0,1,0,0,7.977Z" transform="translate(4.359 29.356)" fill="#fff"/>
    <path id="Path-19" data-name="Path" d="M17.988,20.977h7.977a3.988,3.988,0,0,0,0-7.977H17.988a3.988,3.988,0,1,0,0,7.977Z" transform="translate(34.243 29.356)" fill="#fff"/>
    <path id="Path-20" data-name="Path" d="M7.988,24.977H31.919a3.988,3.988,0,1,0,0-7.977H7.988a3.988,3.988,0,0,0,0,7.977Z" transform="translate(4.359 41.31)" fill="#fff"/>
    <path id="Path-21" data-name="Path" d="M17.988,24.977h7.977a3.988,3.988,0,0,0,0-7.977H17.988a3.988,3.988,0,0,0,0,7.977Z" transform="translate(34.243 41.31)" fill="#fff"/>
    <path id="Path-22" data-name="Path" d="M47.919,32H23.988a3.988,3.988,0,1,0,0,7.977H47.919a3.988,3.988,0,0,0,0-7.977Z" transform="translate(52.174 86.137)" fill="#fff"/>
    <path id="Path-23" data-name="Path" d="M7.988,39.977H31.919a3.988,3.988,0,1,0,0-7.977H7.988a3.988,3.988,0,1,0,0,7.977Z" transform="translate(4.359 86.137)" fill="#fff"/>
    <path id="Path-24" data-name="Path" d="M17.988,39.977h7.977a3.988,3.988,0,0,0,0-7.977H17.988a3.988,3.988,0,0,0,0,7.977Z" transform="translate(34.243 86.137)" fill="#fff"/>
    <path id="Path-25" data-name="Path" d="M23.988,20.977h7.977a3.988,3.988,0,1,0,0-7.977H23.988a3.988,3.988,0,1,0,0,7.977Z" transform="translate(52.174 29.356)" fill="#fff"/>
    <path id="Path-26" data-name="Path" d="M29.988,20.977h7.977a3.988,3.988,0,0,0,0-7.977H29.988a3.988,3.988,0,0,0,0,7.977Z" transform="translate(70.105 29.356)" fill="#fff"/>
    <path id="Path-27" data-name="Path" d="M32,16.988a3.988,3.988,0,0,0,3.988,3.988h7.977a3.988,3.988,0,0,0,0-7.977H35.988A3.988,3.988,0,0,0,32,16.988Z" transform="translate(88.035 29.356)" fill="#fff"/>
    <path id="Path-28" data-name="Path" d="M49.965,20.977a3.988,3.988,0,1,0,0-7.977H41.988a3.988,3.988,0,0,0,0,7.977Z" transform="translate(105.966 29.356)" fill="#fff"/>
    <path id="Path-29" data-name="Path" d="M51.988,28.977h7.977a3.988,3.988,0,1,0,0-7.977H51.988a3.988,3.988,0,1,0,0,7.977Z" transform="translate(135.85 53.264)" fill="#fff"/>
  </g>
</svg>
