<svg xmlns="http://www.w3.org/2000/svg" width="250" height="265" viewBox="0 0 250 265">
  <g id="Grupo_480" data-name="Grupo 480" transform="translate(-64 -414)">
    <g id="Grupo_479" data-name="Grupo 479" transform="translate(0 6)">
      <circle id="Elipse_3" data-name="Elipse 3" cx="110.5" cy="110.5" r="110.5" transform="translate(65 408)" fill="#5c5c5c"/>
      <g id="Grupo_471" data-name="Grupo 471" transform="translate(265.817 -1233.417)">
        <g id="Grupo_476" data-name="Grupo 476" transform="translate(-164.007 1677.948)">
          <g id="Grupo_471-2" data-name="Grupo 471" transform="translate(41.679 154.469)">
            <path id="Trazado_526" data-name="Trazado 526" d="M217.684,3358.768c-3.582.31-9.8.813-14.7,1.029a14.162,14.162,0,0,1-5.619-.55c0,.11,0,.214.009.311a1.014,1.014,0,0,0,.963.957,172.337,172.337,0,0,0,19.246.02.722.722,0,0,0,.588-1.085A6.043,6.043,0,0,0,217.684,3358.768Z" transform="translate(-197.366 -3346.382)" fill="#1a1b1d"/>
            <path id="Trazado_527" data-name="Trazado 527" d="M202.976,3304.324c4.9-.216,11.117-.719,14.7-1.028-3.521-4.321-14.7-7.232-14.7-7.232H199.82a13.239,13.239,0,0,0-2.462,7.711A14.155,14.155,0,0,0,202.976,3304.324Z" transform="translate(-197.357 -3290.91)" fill="#1a1b1d"/>
            <path id="Trazado_528" data-name="Trazado 528" d="M214.1,3251.383l.3,5.846a1.335,1.335,0,0,0,1.14,1.255,5.2,5.2,0,0,0,2.371-.2,1.581,1.581,0,0,0,1.062-1.215l1.021-5.69Z" transform="translate(-212.171 -3251.383)" fill="#2e2e2e"/>
          </g>
          <g id="Grupo_473" data-name="Grupo 473" transform="translate(0 149.006)">
            <g id="Grupo_472" data-name="Grupo 472" transform="translate(0 5.425)">
              <path id="Trazado_529" data-name="Trazado 529" d="M-161.4,3352.835a2.836,2.836,0,0,1-2.551-1.886l-.006.023a2.019,2.019,0,0,0,1.36,2.3,8.893,8.893,0,0,0,3.766.59,3.742,3.742,0,0,0,2.824-1.3l.009-.011C-157.165,3353.128-158.808,3353.2-161.4,3352.835Z" transform="translate(164.007 -3339.428)" fill="#1a1b1d"/>
              <path id="Trazado_530" data-name="Trazado 530" d="M-153.627,3251.052h-2.6c-3.965-.081-6.456,8.283-7.271,11.521a2.836,2.836,0,0,0,2.551,1.887c2.59.361,4.233.292,5.4-.286,2.142-2.819,3.2-6.949,3.715-9.358A3.285,3.285,0,0,0-153.627,3251.052Z" transform="translate(163.559 -3251.052)" fill="#1a1b1d"/>
            </g>
            <path id="Trazado_531" data-name="Trazado 531" d="M-109.011,3204.015l-1.446,5.75a1.56,1.56,0,0,0,.812,1.769,5.542,5.542,0,0,0,2.994.725,1.3,1.3,0,0,0,1.063-.87l2.122-6.048Z" transform="translate(116.674 -3204.015)" fill="#2e2e2e"/>
          </g>
          <path id="Trazado_532" data-name="Trazado 532" d="M-112.514,2591.411c1.8,1.6,7.648,1.806,7.648,1.806,21.073-50.576,29.693-57.761,29.693-57.761-3.043,19.09-.491,61.352-.491,61.352,3.477,1.535,7.961,0,7.961,0a325.771,325.771,0,0,1,10.761-80c-14.242-.32-21.816-5.194-24.29-7.15C-93.1,2528.8-112.514,2591.411-112.514,2591.411Z" transform="translate(118.453 -2440.743)" fill="#1a1b1d"/>
          <path id="Trazado_533" data-name="Trazado 533" d="M152.156,2002.731c-2.7,13.447-1.73,37.514-1.1,48.491.178,3.085-1.976,7.362-3.716,10.281a.915.915,0,0,0,.37,1.288,63.5,63.5,0,0,0,24.234,6.718,1.632,1.632,0,0,0,1.642-1.219c8.489-31.7,18.349-51.952,18.349-51.952C181.053,1998.954,152.156,2002.731,152.156,2002.731Z" transform="translate(-111.317 -1991.974)" fill="#1a1b1d"/>
          <g id="Grupo_474" data-name="Grupo 474" transform="translate(23.582 10.757)">
            <path id="Trazado_535" data-name="Trazado 535" d="M43.461,2332.81c.866,6.264,3.424,13.1,8.542,20.354l1.946-1.585a60.079,60.079,0,0,1-.969-19.454A23.288,23.288,0,0,0,43.461,2332.81Z" transform="translate(-43.114 -2294.219)" fill="#2e2e2e"/>
            <path id="Trazado_536" data-name="Trazado 536" d="M60.722,2021.981l-3.011-16.592s-20.118,15.378-16.909,38.592a23.292,23.292,0,0,1,9.519-.685C51.24,2035.846,53.987,2027.759,60.722,2021.981Z" transform="translate(-40.455 -2005.389)" fill="#1a1b1d"/>
          </g>
          <g id="Grupo_475" data-name="Grupo 475" transform="translate(72.856 24.364)">
            <path id="Trazado_537" data-name="Trazado 537" d="M475.424,2123.36l-7.766,16.724c1.256,10.1,6.68,14.463,12.528,16.137a35.5,35.5,0,0,1,2.608-10.891C475.322,2137.615,475.424,2123.36,475.424,2123.36Z" transform="translate(-467.659 -2123.36)" fill="#1a1b1d"/>
            <path id="Trazado_538" data-name="Trazado 538" d="M578.885,2313.844a35.494,35.494,0,0,0-2.608,10.891c15.6,6.054,19.732-5.687,19.732-5.687l-2.884-.509C586.613,2319.226,582.064,2317.126,578.885,2313.844Z" transform="translate(-563.749 -2291.874)" fill="#1a1b1d"/>
          </g>
          <path id="Trazado_539" data-name="Trazado 539" d="M360.762,1915.843l-3.749,13.782a2.681,2.681,0,0,1-3.586,1.784,54.378,54.378,0,0,1-5.4-2.468,3.613,3.613,0,0,1-1.274-5.192l7.794-11.622Z" transform="translate(-287.296 -1912.126)" fill="#2e2e2e"/>
        </g>
        <path id="Trazado_540" data-name="Trazado 540" d="M35.4,2279.007l-96.064,34.963a7.355,7.355,0,0,0-4.18,9.957l.291.641a6.838,6.838,0,0,0,9.095,3.375l93.277-43.15Z" transform="translate(-87.137 -558.743)" fill="#1a1b1d"/>
        <g id="Grupo_477" data-name="Grupo 477" transform="translate(-55.007 1652.667)" opacity="0.32">
          <ellipse id="Elipse_2" data-name="Elipse 2" cx="47.422" cy="46.566" rx="47.422" ry="46.566" transform="translate(0 0)" fill="#25262b"/>
        </g>
        <path id="Trazado_541" data-name="Trazado 541" d="M787.45,1647.417c-29.143,0-52.767,23.2-52.767,51.815s23.625,51.816,52.767,51.816,52.768-23.2,52.768-51.816S816.593,1647.417,787.45,1647.417Zm0,96.02c-24.862,0-45.016-19.791-45.016-44.2s20.154-44.2,45.016-44.2,45.016,19.791,45.016,44.2S812.312,1743.437,787.45,1743.437Z" transform="translate(-795.035 0)" fill="#1a1b1d"/>
        <path id="Trazado_542" data-name="Trazado 542" d="M764.25,1730.255a.354.354,0,0,1-.352-.31c-.158-1.235-.267-2.485-.328-3.715a.355.355,0,0,1,.336-.371.332.332,0,0,1,.372.337c.059,1.212.168,2.444.323,3.661a.354.354,0,0,1-.307.4Zm.362-14.489a.374.374,0,0,1-.063-.006.354.354,0,0,1-.286-.411,47.7,47.7,0,0,1,2.846-9.743h0a49.314,49.314,0,0,1,45.9-30.377,49.994,49.994,0,0,1,26.577,7.595.355.355,0,0,1-.377.6,49.286,49.286,0,0,0-26.2-7.487,48.607,48.607,0,0,0-45.24,29.939v0a46.937,46.937,0,0,0-2.8,9.6A.355.355,0,0,1,764.612,1715.766Z" transform="translate(-820.59 -24.603)" fill="#2e2e2e"/>
        <g id="Grupo_478" data-name="Grupo 478" transform="translate(-99.762 1663.791)">
          <path id="Trazado_543" data-name="Trazado 543" d="M452.537,1836.6c.034.237-3.127,15.727-3.127,15.727l-8.806-1.993.815-15.127S451.966,1832.638,452.537,1836.6Z" transform="translate(-435.113 -1829.197)" fill="#2e2e2e"/>
          <path id="Trazado_544" data-name="Trazado 544" d="M402.313,1798.765l-1.052,7.929a1.105,1.105,0,0,0,0,.3c.089.622.551,2.738,2.687,2.133,1.938-.549,3.715-1.021,4.943-.646a1.116,1.116,0,0,1,.768,1.292,48.262,48.262,0,0,1-2.027,7.218,1.114,1.114,0,0,1-1.353.659,36,36,0,0,1-7.763-3.176,1.117,1.117,0,0,1-.544-1.005c.084-2,.319-8.087.121-9.793-.185-1.6-2.15-2.56-3-2.9a1.1,1.1,0,0,1-.611-.613c-.4-.991-.94-3.283,1.949-4.223a1.119,1.119,0,0,0,.708-1.447,2.9,2.9,0,0,1,1.627-4.011,4.094,4.094,0,0,1,4.884,1.177,1.118,1.118,0,0,0,1.424.168.884.884,0,0,1,1.006.034,1.1,1.1,0,0,0,1.559-.472,3.337,3.337,0,0,1,3.877-1.932c3.946.676,4.393,5.049,3.352,7.611s-5.278,1.587-7.4.295c-1.616-.982-3.712.047-4.624.6A1.109,1.109,0,0,0,402.313,1798.765Z" transform="translate(-394.027 -1789.384)" fill="#1a1b1d"/>
          <path id="Trazado_545" data-name="Trazado 545" d="M396.714,1891.037s1.622-4.543-.044-5.656-4.135-.535-3.592,2.756C393.754,1892.23,396.714,1891.037,396.714,1891.037Z" transform="translate(-393.001 -1873.851)" fill="#2e2e2e"/>
        </g>
        <path id="Trazado_546" data-name="Trazado 546" d="M113.755,2494.633l9.081-.74,3.933,3.625s-.93,1.287-3.839.547a41.623,41.623,0,0,0-6.894-.92s-4.016,1.81-4.065-1.578Z" transform="translate(-244.147 -748.844)" fill="#2e2e2e"/>
        <path id="Trazado_547" data-name="Trazado 547" d="M730.116,2324.859c.785.614,3.476-.667,5.123-1.553a1.894,1.894,0,0,0,.916-2.238c-.4-1.25-1.056-2.863-1.87-3.066C732.935,2317.665,726.88,2322.331,730.116,2324.859Z" transform="translate(-790.164 -593.225)" fill="#2e2e2e"/>
        <path id="Trazado_548" data-name="Trazado 548" d="M-44.043,2575.1a.372.372,0,0,1-.116-.02c-3.752-1.3-4.625-3.515-4.7-5.146a5.715,5.715,0,0,1,3.727-5.506l11.535-4.5a.355.355,0,0,1,.458.2.355.355,0,0,1-.2.459l-11.535,4.5a5.006,5.006,0,0,0-3.275,4.815c.089,2.053,1.509,3.569,4.22,4.506a.354.354,0,0,1,.218.451A.354.354,0,0,1-44.043,2575.1Z" transform="translate(-101.865 -807.24)" fill="#2e2e2e"/>
        <path id="Trazado_549" data-name="Trazado 549" d="M112.709,2544.124a.355.355,0,0,1-.128-.685l1.5-.583a.355.355,0,0,1,.257.661l-1.5.583A.348.348,0,0,1,112.709,2544.124Z" transform="translate(-244.486 -792.138)" fill="#2e2e2e"/>
      </g>
    </g>
    <text id="_No_haz_añadido_nada_aún_" data-name="¡No haz añadido nada aún!" transform="translate(189 673)" fill="#5c5c5c" font-size="21" font-family="Roboto-Bold, Roboto" font-weight="700"><tspan x="-124.611" y="0">¡No haz añadido nada aún!</tspan></text>
  </g>
</svg>
