<svg xmlns="http://www.w3.org/2000/svg" width="141" height="141" viewBox="0 0 141 141">
  <g id="redes" transform="translate(0)" opacity="0.05">
    <path id="Trazado_569" data-name="Trazado 569" d="M241.859,235.614a5.514,5.514,0,1,0,5.514,5.514,5.52,5.52,0,0,0-5.514-5.514Z" transform="translate(-171.258 -170.728)" fill="#fff"/>
    <path id="Trazado_570" data-name="Trazado 570" d="M121.909,38.183a19.12,19.12,0,1,0-16.1-8.846L83.985,51.164a23.371,23.371,0,0,0-26.768,0L39.585,33.532a14.919,14.919,0,1,0-5.853,5.85L51.366,57.015a23.371,23.371,0,0,0,0,26.768L29.338,105.812a19.121,19.121,0,1,0,5.851,5.852L57.217,89.635a23.372,23.372,0,0,0,26.767,0l16.8,16.8a14.922,14.922,0,1,0,5.85-5.853l-16.8-16.8a23.372,23.372,0,0,0,0-26.768l21.827-21.827a18.974,18.974,0,0,0,10.246,2.995Zm0-29.908a10.816,10.816,0,1,1-10.816,10.816A10.828,10.828,0,0,1,121.909,8.275ZM26.538,32.963a6.631,6.631,0,1,1,6.631-6.631A6.639,6.639,0,0,1,26.538,32.963Zm-7.447,99.762a10.816,10.816,0,1,1,10.816-10.816A10.828,10.828,0,0,1,19.091,132.725ZM70.6,85.571A15.172,15.172,0,1,1,85.772,70.4,15.189,15.189,0,0,1,70.6,85.571Zm49.87,28.061A6.631,6.631,0,1,1,113.839,107,6.639,6.639,0,0,1,120.47,113.632Z" fill="#fff"/>
  </g>
</svg>
