<svg xmlns="http://www.w3.org/2000/svg" width="35.202" height="51.011" viewBox="0 0 35.202 51.011">
  <g id="Grupo_426" data-name="Grupo 426" transform="translate(-14.173 -10.183)" opacity="0.8">
    <path id="Trazado_498" data-name="Trazado 498" d="M18.581,15.276a29.694,29.694,0,0,0-3.842,1.314v4.658c0,1.333-.131,1.031,1.268,1.077,7.544.246,11.581,1.262,17.237,4.76a9.964,9.964,0,0,0-1.237-3.978,21.544,21.544,0,0,0-12.016-4.444A17.562,17.562,0,0,1,40.681,41.29c-1.067-.284-3.249-1.136-5.259.562.976,2.714.2,6.962-3.439,6.714a5.054,5.054,0,0,1-2.382,4.31c-2.561,1.569-6.526,2.1-8.494.92-2.446.4-4.232-.326-6.353-1.366v2.24a11.787,11.787,0,0,0,3.827,1.486l.965,4.324a1.291,1.291,0,0,0,1.261.716h6.527a1.305,1.305,0,0,0,1.192-.716l.931-4.447A20.476,20.476,0,0,0,32,55.178l3.373,2.976A1.236,1.236,0,0,0,36.749,58L41.7,54.332a1.361,1.361,0,0,0,.524-1.275l-1.851-4.078A21.459,21.459,0,0,0,41.929,46.8l4.5.424c.473-.007.8-.308,1.008-.932l1.856-5.887a1.139,1.139,0,0,0-.3-1.32l-3.919-2.226a21.036,21.036,0,0,0-.021-2.678l3.887-2.3c.425-.226.482-.711.249-1.379l-1.946-5.839a1,1,0,0,0-1-.878l-4.495.508a20.6,20.6,0,0,0-1.592-2.154l1.786-4.13a1.011,1.011,0,0,0-.562-1.253l-5.01-3.574a1.126,1.126,0,0,0-1.376-.128l-3.324,3.03a20.554,20.554,0,0,0-2.553-.806l-.983-4.4c-.159-.513-.549-.733-1.226-.694H20.757a1.152,1.152,0,0,0-1.2.7Zm7.246,18.891h.56a.107.107,0,0,1,.107.107v.215a.107.107,0,0,1-.107.107h-.56a.107.107,0,0,1-.107-.107v-.215a.107.107,0,0,1,.107-.107m1.467-9.4a1.761,1.761,0,1,1-2.156,1.248,1.761,1.761,0,0,1,2.156-1.248m.379.739a.528.528,0,1,1-.647.374.529.529,0,0,1,.647-.374m-1.566,7.6a1.275,1.275,0,1,1-1.275,1.275,1.275,1.275,0,0,1,1.275-1.275m0,.628a.647.647,0,1,1-.647.647.647.647,0,0,1,.647-.647M29.462,26c1.274.541,2.592,1.121,3.805,1.772-.006.275-.041.565-.063.841a16.839,16.839,0,0,1-.482,2.008,12.5,12.5,0,0,0-7.11-.379,3.664,3.664,0,0,1-1.882-3.918l.466.138a2.647,2.647,0,0,0,5.29-.1A2.594,2.594,0,0,0,29.462,26m-1.474,8.327a2.161,2.161,0,0,0-2-2.039,13.161,13.161,0,0,0-3.308-.169c2.344-1.913,7.16-1.962,9.752-.923a4.778,4.778,0,0,0-4.443,3.13M14.871,24.084c-.227-.02-.272-1.111.038-1.1a34.842,34.842,0,0,1,10.2,1.418,2.606,2.606,0,0,0-.854,1.424,38.471,38.471,0,0,0-9.383-1.738M14.9,26c-.274-.044-.274-1.387-.02-1.355a52.1,52.1,0,0,1,8.23,1.472,4.279,4.279,0,0,0-.022,1.678A64.514,64.514,0,0,0,14.9,26m0,2.428c-.229-.069-.374-1.75.056-1.674a82.931,82.931,0,0,1,8.316,1.715,6.017,6.017,0,0,0,1.359,2.094c-1.6.574-7.358-1.43-9.731-2.134m.059,4.013c-.226.017-.7-3.383.156-3.144a52.923,52.923,0,0,0,8.159,1.877,7.01,7.01,0,0,0-1.331.946q-1.4-.015-2.771.039c-1.4.055-2.808.177-4.213.281m.048,2.37c-.483.013-.465-1.748-.014-1.8a52.479,52.479,0,0,1,10.12-.23,1.884,1.884,0,0,0-.376,2.891,40.028,40.028,0,0,0-9.73-.858m-.271,3.492-.007-2.486a.333.333,0,0,1,.26-.357,27.2,27.2,0,0,1,5.722.086l.132.013a44.284,44.284,0,0,0-5.665,3.078.35.35,0,0,1-.382-.011c-.1-.07-.06-.2-.06-.323m13.78.324a6.01,6.01,0,0,1-1.782-2.477,1.883,1.883,0,0,0,1.06-.945,4.585,4.585,0,0,0,.726,2.96,2.756,2.756,0,0,0,.2.285c.219.254.063.381-.208.177M20.509,52.39c-2.031.129-5.571-.091-6.336-2.405a62.691,62.691,0,0,1,8.539-14.179c.268.044.536.087.8.136C21.248,41.3,20.6,46.6,20.509,52.39m-5.389-6.847c-.671.434-1.484-4.883,0-5.992,1.637-1.136,3.2-2.115,4.97-3.228l1.15-.716c.249.028.5.059.748.094-.213.236-.645.723-.722.809-2.146,2.362-4.624,6.563-6.146,9.033M34.857,30.75c.51.178-.1,1.865-.472,1.765a1.3,1.3,0,0,0-1.069.24,16.73,16.73,0,0,1,1.091,2.8c.076.334.17,1.135-.206,1.356a4.415,4.415,0,0,1-1.313.184l-.087.629c.044.087.157.122.15.185a.617.617,0,0,1-.615.425c.056.211.205.3.15.626-.035.2-.409.23-.66.364s-.131.211-.279.225l-.1-.018c-3.522-.618-3.645-5.067-1.005-6.771l.807.265c.226.074.2.09-.046.171a2.343,2.343,0,0,1-.319.076c-.282.055-.309.051-.018.152.336.117.734.194.977.282.126.045.121.086.216-.045a.489.489,0,0,0,.029-.5.851.851,0,0,0,.454-.088c.254-.15.169-.243-.094-.229a1.592,1.592,0,0,1-.514.02l-1.123-.317a3.264,3.264,0,0,1,2.244-.72l.417-1.56Zm-2.735,9.616c1.071.914,2.691.243,1.807.913-2.9,2.2-7.163-1.628-7.735-4.832.128.007.256.007.381,0A5.407,5.407,0,0,0,28.6,39.2a4.008,4.008,0,0,0,2.251.838c.767.067.656-.2,1.271.33m7.193-11.3c.709,1.813.633,4.283-.976,5.277-.557.344-.778-.037-.372-.459a1.621,1.621,0,0,0,.2-1.373c-.421-1.491-3.2-2.462-4.513-2.866a8.273,8.273,0,0,0-.534-5.55c2.639.757,5.151,2.3,6.2,4.971m-17,23.847c-.414-4.512-.159-12.735,1.8-16.859.437.087.859.22,1.31.3-.006.072-.042.6-.045.649-.395,6.09,2.007,9.952,5.533,11.724-.389,3.961-5.4,4.845-8.6,4.187M34.748,42.252c.834,1.413-.425,5.191-2.161,5.509-4.539-.972-7.3-7.107-6.878-11.359.065.01.129.017.192.022a5.612,5.612,0,0,0,.139.687c.854,3.338,5.022,7,8.708,5.141" fill="#fff" fill-rule="evenodd"/>
  </g>
</svg>
