<svg xmlns="http://www.w3.org/2000/svg" width="65" height="65" viewBox="0 0 65 65">
  <path id="Trazado_568" data-name="Trazado 568" d="M32.665,0H32.61A32.569,32.569,0,0,0,0,32.373,32.047,32.047,0,0,0,2.587,45.02,33.091,33.091,0,0,0,19.98,62.413,32.046,32.046,0,0,0,32.625,65h.012a32.5,32.5,0,0,0,.027-65ZM26.32,4.5a37.726,37.726,0,0,0-7.9,10.735H9.587A28.9,28.9,0,0,1,26.32,4.5ZM7.146,19.018h9.647A39.5,39.5,0,0,0,14.47,30.469H3.874A28.283,28.283,0,0,1,7.146,19.018Zm.072,26.939a28.606,28.606,0,0,1-3.344-11.68H14.457a39.336,39.336,0,0,0,2.336,11.68Zm2.447,3.809H18.42a37.724,37.724,0,0,0,7.891,10.727A28.876,28.876,0,0,1,9.665,49.766Zm8.606-15.488H30.723v11.68H20.9A35.024,35.024,0,0,1,18.271,34.277ZM30.723,59.3a34.591,34.591,0,0,1-7.964-9.536h7.964V59.3Zm0-28.833H18.284A35.013,35.013,0,0,1,20.9,19.043h9.823Zm0-15.234H22.759A34.593,34.593,0,0,1,30.723,5.7Zm27.161,3.809a28.355,28.355,0,0,1,3.243,11.426H50.784a39.333,39.333,0,0,0-2.323-11.426Zm-2.419-3.809H46.834A37.726,37.726,0,0,0,38.951,4.515,28.627,28.627,0,0,1,55.464,15.234ZM34.531,5.7A34.593,34.593,0,0,1,42.5,15.234H34.531Zm0,13.344h9.825A35.017,35.017,0,0,1,46.97,30.469H34.531ZM46.984,34.252a35.168,35.168,0,0,1-2.627,11.705H34.531V34.252ZM34.531,59.3V49.74H42.5A34.7,34.7,0,0,1,34.531,59.3Zm4.429,1.175A37.84,37.84,0,0,0,46.834,49.74h8.553A28.641,28.641,0,0,1,38.96,60.476Zm9.5-14.519A39.5,39.5,0,0,0,50.8,34.252h10.33a28.914,28.914,0,0,1-3.315,11.705Z" fill="#546a8f"/>
</svg>
