<svg xmlns="http://www.w3.org/2000/svg" width="239.708" height="15.323" viewBox="0 0 239.708 15.323">
  <g id="Grupo_427" data-name="Grupo 427" transform="translate(-81.955 -30.422)" opacity="0.8">
    <path id="Trazado_499" data-name="Trazado 499" d="M55.807,36.381V27.138l-2.851.005V24.692h7.829v2.446H57.947v9.242Zm77.388-7.713V25.406a3.974,3.974,0,0,0-6.081.689,7.384,7.384,0,0,0-1.332,4.443,6.979,6.979,0,0,0,1.792,4.951,3.882,3.882,0,0,0,5.621.151V32.676c-1.235,1.359-3.246,2.216-4.527.432a4.328,4.328,0,0,1-.719-2.6,4.453,4.453,0,0,1,.724-2.624c1.067-1.516,2.681-1.222,3.835-.038ZM107.024,23.43l.751-.978-.527-.689-1.265,1.649ZM76.192,28.668V25.406a3.973,3.973,0,0,0-6.083.689,7.39,7.39,0,0,0-1.332,4.443,6.989,6.989,0,0,0,1.789,4.951,3.893,3.893,0,0,0,5.627.151V32.676c-1.235,1.359-3.248,2.216-4.529.432a4.346,4.346,0,0,1-.716-2.6,4.453,4.453,0,0,1,.722-2.624c1.07-1.516,2.681-1.219,3.832-.038Zm44.369,2.194v-.967h-3.813V32.27h1.7v1.7a3.179,3.179,0,0,1-1.159.249c-1.684,0-2.732-1.632-2.732-3.767a4.233,4.233,0,0,1,.792-2.627,2.407,2.407,0,0,1,3.3-.668,4.871,4.871,0,0,1,1.243,1.2l.23-2.924a4.853,4.853,0,0,0-1.381-.854,4.235,4.235,0,0,0-4.978,1.494,7.109,7.109,0,0,0-1.37,4.481c0,3.589,1.994,6.213,4.751,6.213a6.41,6.41,0,0,0,3.421-1.189Zm1.8,5.518h2.146V24.692h-2.146ZM96.776,25.668V36.381h5.637V33.875h-3.5V24.692H96.774Zm-19.144,0V36.381H79.61V30.006l5.237,6.375H85.4V24.692H83.424v6.443l-5.275-6.443-.519-.008Zm-15.5,0V36.381H67.7V33.924H64.2V31.613H66.22v-2.4H64.2V27.1h3.448V24.692H62.12Zm24.384,4.87c0-3.4,1.943-6.226,4.575-6.226,2.67,0,4.575,2.824,4.575,6.226,0,3.381-1.905,6.229-4.575,6.229-2.632,0-4.575-2.867-4.575-6.229m2.205,0c0,1.805.876,3.581,2.37,3.581s2.37-1.762,2.37-3.581-.859-3.6-2.37-3.6-2.37,1.789-2.37,3.6m13.588,0a8.3,8.3,0,0,1,.343-2.43c.686-2.278,2.346-3.8,4.229-3.8,2.692,0,4.575,2.854,4.575,6.226,0,3.411-1.932,6.229-4.575,6.229s-4.573-2.892-4.573-6.229m2.2,0c0,1.805.873,3.581,2.37,3.581s2.37-1.762,2.37-3.581-.859-3.6-2.37-3.6-2.37,1.789-2.37,3.6m33.913-6.226c1.867,0,3.565,1.513,4.237,3.781A8.56,8.56,0,0,1,143,30.538c0,3.378-1.905,6.229-4.575,6.229-2.64,0-4.567-2.878-4.573-6.21-.005-3.365,1.9-6.245,4.573-6.245m-2.37,6.226c0,1.805.876,3.581,2.37,3.581,1.511,0,2.37-1.759,2.37-3.581s-.857-3.6-2.37-3.6-2.37,1.789-2.37,3.6" transform="translate(28.999 8.659)" fill="#fff" fill-rule="evenodd"/>
    <g id="Grupo_427-2" data-name="Grupo 427" transform="translate(176.597 31.74)">
      <path id="Trazado_500" data-name="Trazado 500" d="M117.519,33.978c-1.211-1.173-2.9-1.467-4.024.035a4.79,4.79,0,0,0-.005,5.194c1.338,1.762,3.454.924,4.751-.43v2.946a4.244,4.244,0,0,1-5.9-.151c-2.311-2.235-2.519-6.745-.481-9.332a4.318,4.318,0,0,1,6.383-.686v3.24ZM93,30.081l.454-.559-.554-.684L91.9,30.081Zm14.183,1.732V42.461h2.246V30.849h-2.246Zm-7.445,4.64-3.381,6.008h2.459l2.167-3.94,2.286,3.94h2.767l-3.71-6.248,3.032-5.364h-2.446l-1.824,3.316-1.943-3.316H96.972ZM89.7,31.813V42.461h5.854V40.018h-3.67v-2.3h2.208V35.343H91.883v-2.1H95.5V30.849H89.7Zm-10.2-.967L77.568,42.461h2l.827-5.381,2.486,5.381h.576l2.33-5.3.8,5.3h2.135L86.816,30.849h-.4l-3.184,7.183L79.86,30.849Zm41.826,5.808c0,1.794.916,3.562,2.486,3.562s2.486-1.751,2.486-3.562-.9-3.575-2.486-3.575-2.486,1.776-2.486,3.575m-2.313,0c0-3.329,2-6.183,4.8-6.183,2.824,0,4.8,2.835,4.8,6.183,0,3.392-2.03,6.183-4.8,6.183-2.786,0-4.8-2.865-4.8-6.183" transform="translate(16.459 -28.838)" fill="#fff" fill-rule="evenodd"/>
      <path id="Trazado_501" data-name="Trazado 501" d="M116,30.732V41.326h2.489a5.3,5.3,0,0,0,3.284-.87,5.692,5.692,0,0,0,2.311-4.9,5.866,5.866,0,0,0-1.484-4.232,5.444,5.444,0,0,0-4.11-1.546H116Zm9.337,0V41.326h5.818V38.893h-3.651V36.61h2.375V34.242h-2.375V32.153h3.6V29.773c-2.165,0-3.6.011-5.767.011Zm-22.02,10.594h5.889V38.845h-3.651V29.773h-2.235Zm-10.291,0h2.254l.6-1.684h3.8l.595,1.684h2.338L98.089,29.773h-.427Zm3.505-3.67,1.249-3.619,1.213,3.619ZM84.25,30.732V41.326h2.059v-6.3l5.437,6.262h.608V29.773H90.292V36.14l-5.51-6.367H84.25Zm-14.023,0V41.326h2.235V29.773H70.229Zm-2.575,2.157c-1.2-1.17-2.884-1.462-4,.035a4.229,4.229,0,0,0-.754,2.6,4.139,4.139,0,0,0,.749,2.57c1.338,1.759,3.438.916,4.727-.432v2.929a4.216,4.216,0,0,1-5.87-.146,6.692,6.692,0,0,1-1.867-4.891,7.047,7.047,0,0,1,1.386-4.392,4.3,4.3,0,0,1,6.351-.684V33.7ZM51.558,41.326h2.248l.608-1.684h3.8l.592,1.684h2.343L56.614,29.773h-.427Zm3.505-3.67,1.246-3.619,1.216,3.619Zm-12.288,3.67.008-11.553h.53L48.82,36.14V29.773h2.065V41.326h-.611l-5.435-6.3v6.3ZM73.756,35.55c0-3.365,2.024-6.156,4.773-6.156,2.813,0,4.775,2.819,4.775,6.156S81.315,41.7,78.529,41.7c-2.727,0-4.773-2.813-4.773-6.151m2.3,0c0,1.784.913,3.54,2.473,3.54S81,37.345,81,35.55s-.895-3.562-2.473-3.562-2.473,1.767-2.473,3.562m42.156,3.294V32.237h.492a2.967,2.967,0,0,1,2.289.884,3.4,3.4,0,0,1,.83,2.43,3.37,3.37,0,0,1-.83,2.419,2.991,2.991,0,0,1-2.289.876Z" transform="translate(-42.775 -27.919)" fill="#fff" fill-rule="evenodd"/>
    </g>
  </g>
</svg>
