<svg xmlns="http://www.w3.org/2000/svg" width="65" height="65" viewBox="0 0 65 65">
  <g id="programacion-web" transform="translate(-0.5 -0.5)">
    <path id="Trazado_571" data-name="Trazado 571" d="M.5,9.475v47.05A9.055,9.055,0,0,0,9.475,65.5h47.05A9.055,9.055,0,0,0,65.5,56.525V9.475A9.055,9.055,0,0,0,56.525.5H9.475A9.055,9.055,0,0,0,.5,9.475ZM60.333,22.529v34A3.6,3.6,0,0,1,56.8,60.061H9.475a3.6,3.6,0,0,1-3.536-3.536v-34a3.6,3.6,0,0,1,3.536-3.536h47.05A3.665,3.665,0,0,1,60.333,22.529ZM30.96,7.571H54.621a2.925,2.925,0,0,1,2.72,2.72,2.925,2.925,0,0,1-2.72,2.72H30.96a2.72,2.72,0,1,1,0-5.439Zm-11.967,0a2.72,2.72,0,1,1-2.72,2.72,2.725,2.725,0,0,1,2.72-2.72Zm-4.9,2.72a2.725,2.725,0,0,1-2.72,2.72,2.925,2.925,0,0,1-2.72-2.72,2.925,2.925,0,0,1,2.72-2.72A2.725,2.725,0,0,1,14.1,10.291Z" transform="translate(0 0)" fill="#546a8f"/>
    <path id="Trazado_572" data-name="Trazado 572" d="M20.98,12.2A2.958,2.958,0,0,0,16.8,16.38l4.483,4.483L16.8,25.345a2.958,2.958,0,0,0,4.184,4.184l6.873-6.574a2.884,2.884,0,0,0,0-4.184Z" transform="translate(25.575 17.511)" fill="#546a8f"/>
    <path id="Trazado_573" data-name="Trazado 573" d="M16.753,12.3a2.889,2.889,0,0,0-4.184,0L5.7,18.871a2.884,2.884,0,0,0,0,4.184l6.873,6.574a2.958,2.958,0,0,0,4.184-4.184l-4.483-4.483,4.483-4.483a2.889,2.889,0,0,0,0-4.184Z" transform="translate(7.141 17.673)" fill="#546a8f"/>
    <path id="Trazado_574" data-name="Trazado 574" d="M21.6,9.038a3.073,3.073,0,0,0-3.586,2.092l-7.471,26.9a3.073,3.073,0,0,0,2.092,3.586,3.073,3.073,0,0,0,3.586-2.092l7.471-26.9A3.246,3.246,0,0,0,21.6,9.038Z" transform="translate(16.552 12.661)" fill="#546a8f"/>
  </g>
</svg>
