<svg xmlns="http://www.w3.org/2000/svg" width="151.674" height="151.674" viewBox="0 0 151.674 151.674">
  <path id="Trazado_2884" data-name="Trazado 2884" d="M77.837,2a75.837,75.837,0,1,0,75.837,75.837A75.864,75.864,0,0,0,77.837,2Zm27.377,48.081A14.637,14.637,0,1,1,90.577,64.717,14.6,14.6,0,0,1,105.214,50.081ZM59.712,38.1A17.9,17.9,0,1,1,41.814,56,17.931,17.931,0,0,1,59.712,38.1Zm0,69.239v28.439a60.72,60.72,0,0,1-38.98-37.615c7.963-8.494,27.832-12.816,38.98-12.816a77.142,77.142,0,0,1,14.409,1.668C61.684,93.611,59.712,102.332,59.712,107.337Zm18.125,31.169a51.952,51.952,0,0,1-5.991-.3V107.337c0-10.769,22.3-16.153,33.368-16.153,8.115,0,22.144,2.958,29.121,8.721A60.811,60.811,0,0,1,77.837,138.506Z" transform="translate(-2 -2)" fill="#fff"/>
</svg>
